<?xml version="1.0" encoding="utf-8"?>
<!-- Generator: Adobe Illustrator 27.1.1, SVG Export Plug-In . SVG Version: 6.00 Build 0)  -->
<svg version="1.1" id="Camada_1" xmlns:xodm="http://www.corel.com/coreldraw/odm/2003"
	 xmlns="http://www.w3.org/2000/svg" xmlns:xlink="http://www.w3.org/1999/xlink" x="0px" y="0px" viewBox="0 0 385.4 383.6"
	 style="enable-background:new 0 0 385.4 383.6;" xml:space="preserve">
<style type="text/css">
	.st0{fill-rule:evenodd;clip-rule:evenodd;fill:#2A2A2B;}
	.st1{fill:#2A2A2B;}
</style>
<g id="Layer_x0020_1">
	<path class="st0" d="M306.4,1.5c-16,5-17.5,9.9-30,18.3c-103.7,69.7-174,137.6-244.9,239.6c-8.2,11.8-12,19.8-20.2,28.8
		c-13.2,14.7-18.5,36.3,4,46.4c10.3,4.6,8.6-0.3,15.6,8.9c9.8,12.9,23.7,18.5,40.1,20c12,1.1,5.4,6.1,25.4,12.4
		c5.6,1.8,13.5,2.8,20.7,2.4c13.5-0.8,7.1-3.6,19.3,2c11.3,5.2,30.5,3.8,40.8-1c14.1-6.6,29.9,7.5,55.6-13.3c7.4-6,31.1,0,48.3-23.6
		c5.7-7.8,6.2-4.3,15.7-8.8c9-4.2,20.4-15.6,24.7-24.2c5.7-11.5,0.9-5.8,11.5-12.9c8.4-5.6,16.6-17.4,20.5-28.3
		c3.9-10.9-2.1-8,6.8-16.4c8.5-7.9,13.7-22,15.1-33.7c1.5-13-4.1-8.1,2.8-18.8c6.4-9.9,9.3-27.8,5.1-41.6
		c-5.3-17.4,6.9-12.9-0.5-42.8c-2.2-8.9-3.8-8.9-7.2-15.7c-3.1-6.4-0.6-15.1-2.2-22.5c-3.8-17.8-14.6-25-18.3-30.1
		c-4.3-5.9,0.4-15.1-15.8-33.2C331.3,4.3,321.7-3.3,306.4,1.5L306.4,1.5z M279.3,301.8c1.5,3,3.8,6.1,5.2,9.7l3.8,12.6
		c11.2-2.8,40.1-25.7,15.8-46.8C299.2,279.3,281.7,296.9,279.3,301.8L279.3,301.8z M311.5,267.3c2.3,3.7,4.8,4.8,7.9,9.2
		c2.7,3.8,3.2,7.4,6.3,10.7c13.9-7.3,29.1-38.4,5.8-47.8L311.5,267.3L311.5,267.3z M240.5,328.8c2.1,9.2,2.2,12.5,1.5,22.6
		c19.7-2.4,46.2-22.3,27.6-41.4c-5.4,2.2-8.5,5.7-13.9,9.5C250.6,323,245.7,325.8,240.5,328.8L240.5,328.8z M298.9,18.5l22.4,26.9
		c7.4-2.1,10.5-3.5,20.4-3.6c-1.6-10.7-13.3-29.5-27.6-29.8C307.5,11.9,302.9,13.6,298.9,18.5L298.9,18.5z M195.5,346.9l-2.7,20.1
		c21.1,0.2,42.3-6.4,37.6-31.9C226.4,335.7,200.4,345,195.5,346.9z M337.3,228.4l15.7,14.2c13.2-13.3,17.5-42.7-4.4-47.6
		L337.3,228.4L337.3,228.4z M140.2,369.2c18.5,6.5,43.7,2.1,43.6-20.5c-3.6-0.5-23.3,1.5-29.5,1.8c-7.8,0.4-6.5,0.2-8.9,6.9
		C143.3,363,141.1,364.7,140.2,369.2z M328.8,54.8l14.7,32.6l19.9,1.6C363.1,70.7,350.1,45.5,328.8,54.8z M41,336.3
		c5.7,13,38.1,24.2,46.5,4.3c-3.3-3.5-9.7-5.3-15.4-8.2c-5.1-2.6-10.1-6-15.3-7.9L41,336.3L41,336.3z M88.6,359.4
		c18.6,13.9,47.3,8.1,46.4-9.1l-35.1-6.2C96.9,348.1,89.5,356.5,88.6,359.4L88.6,359.4z M351.8,182.9c6.5,2.7,11.6,7.3,17.2,9.7
		c6.8-14.8,9.1-45-14.7-44.8L351.8,182.9L351.8,182.9z M353.9,134.2c3.3,1.6,5.8,1.7,9.9,3.2l5.8,2.1c7.9,1,7.4-42.9-21.8-40
		C347.8,101.8,353.2,132.1,353.9,134.2z M46.2,317.6c-1.9-2.7-22.6-20.4-25.5-21.7C-4.1,317.4,28.2,338.4,46.2,317.6z M29.6,286
		c24.3,29.6,74.4,54.3,129.3,53.1c54.9-1.2,91.9-26.9,123.8-58.8c29.7-29.7,58.5-67.4,59.4-123.8c0.5-29-4.6-54.4-14.8-76.3
		c-6.3-13.4-25.4-46.4-38.9-53.5c-31.5,13.9-120,91.9-144,115.2c-20,19.4-41.1,43.2-61.5,67.9C73.4,221.2,32.3,275.4,29.6,286
		L29.6,286z"/>
	<g>
		<polygon class="st1" points="27.1,288.5 27.1,288.5 27.1,288.5 		"/>
		<path class="st1" d="M329.4,79.5c-6.4-13.6-25.8-47.2-39.6-54.3c-32,14.1-121.9,93.4-146.3,117.1c-20.3,19.7-41.8,43.9-62.5,69
			c-9.5,11.5-51.2,66.5-54,77.3c24.7,30.1,75.6,55.1,131.3,54c55.8-1.2,93.3-27.3,125.7-59.7c30.2-30.2,59.4-68.4,60.4-125.7
			C345,127.6,339.8,101.8,329.4,79.5z M216.9,135.7c2-5.1,7.4-2.7,11.9-2.9c7.2-0.3,8.3,0.3,8.1,8.5v0
			C228.1,148.6,213.5,144.2,216.9,135.7z M74.9,263.4c-5.6-1.1-13.4-4.5-9-11.1c4.1-6.2,8.9,2.2,17.1-2.1h0
			C96,243.4,95.5,267.5,74.9,263.4z M134.1,264.2c8.1-3.1,7.1,1.2,14.4,0c6.9-1.1,1.9-4.5,11.1-3.4
			C172.7,277.9,127.6,283.5,134.1,264.2z M160.2,192.5c-5.2,0.1-11.8-0.8-11.2-7c0.7-7.8,7.3-3,13.1-6
			C175.5,172.6,176.3,192.1,160.2,192.5z M211.9,293.3l0.3-7.1h0c7.9-4.3,11.2,0.2,17.7-5.4c2.6-2.2,1.4-5.2,7.9-3.6
			C250.7,280.2,231.4,303.6,211.9,293.3z M231.4,231.9c-11.3-2.2-13.2-12-3.7-12.7c11.8-0.8,7.3,7.7,21.5-2.6
			C262.1,207.4,264.5,238.3,231.4,231.9z M276.7,94.9c-3.9,0.2-8-0.1-9.7-2.4c-7.8-10.6,12.3-9.9,12.3-9.9c4.7-1.1,2.9-2.3,6.4-4.9
			C296.4,69.7,300.7,93.8,276.7,94.9z M310.1,167.1c-12.1,6.6-28.4-4.1-17.5-13.2l17.7,5.3L310.1,167.1z"/>
	</g>
</g>
</svg>
