<?xml version="1.0" encoding="UTF-8"?>
<svg id="Camada_2" data-name="Camada 2" xmlns="http://www.w3.org/2000/svg" viewBox="0 0 65.88 21.8">
  <defs>
    <style>
      .cls-1 {
        fill: #fff;
      }

      .cls-2 {
        fill: #662480;
      }
    </style>
  </defs>
  <g id="Camada_1-2" data-name="Camada 1">
    <g>
      <path class="cls-2" d="M65.88,0H0V3.24c6.83,.1,12.85,3.58,16.44,8.85,.19,.29,.37,.58,.55,.87,3.5,5.15,9.33,8.58,15.95,8.84,6.63-.25,12.45-3.69,15.95-8.84,.18-.29,.36-.58,.55-.87,3.59-5.27,9.61-8.75,16.44-8.85V0Z"/>
      <g>
        <rect class="cls-1" x="28.86" y="17.46" width="3.75" height="2.01"/>
        <rect class="cls-1" x="28.86" y="14.06" width="3.75" height="2.72"/>
        <rect class="cls-1" x="28.86" y="10.22" width="3.75" height="3.16"/>
        <polygon class="cls-1" points="28.17 14.06 25.77 14.06 26.4 16.78 28.17 16.78 28.17 14.06"/>
        <path class="cls-1" d="M26.78,18.39c.17,.61,.7,1.07,1.38,1.07h.02v-2.01h-1.61l.22,.93Z"/>
        <path class="cls-1" d="M37.71,19.47h.02c.68,0,1.21-.45,1.38-1.07l.22-.94h-1.62v2Z"/>
        <rect class="cls-1" x="33.28" y="10.22" width="3.75" height="3.16"/>
        <rect class="cls-1" x="33.28" y="17.46" width="3.75" height="2.01"/>
        <polygon class="cls-1" points="37.71 16.78 39.48 16.78 40.12 14.06 37.71 14.06 37.71 16.78"/>
        <rect class="cls-1" x="33.28" y="14.06" width="3.75" height="2.72"/>
        <path class="cls-1" d="M40.46,10.22h-1.73v-3.47c0-.64-.52-1.16-1.16-1.16h-9.26c-.64,0-1.16,.52-1.16,1.16v3.47h-1.73c-.37,0-.65,.35-.56,.71l.71,2.45h2.6V7.11c0-.28,.23-.51,.51-.51h8.53c.28,0,.51,.23,.51,.51v6.27h2.6l.71-2.45c.08-.36-.19-.71-.56-.71Z"/>
      </g>
    </g>
  </g>
</svg>